PathFileType	4	(x/y/z)	S02_PSF_T03
DataRate	CameraRate	NumFrames	NumMarkers	Units	OrigDataRate	OrigDataStartFrame	OrigNumFrames
240	240	8	51	mm	240	198	394
Frame#	Time	Sternum			R.Acromium			L.Acromium			Top.Head			R.ASIS			L.ASIS			R.PSIS			L.PSIS			R.Great.Tro			L.Great.Tro			R.Iliac.Crest			L.Iliac.Crest			V.Sacral			R.Thigh.Upper.Post			R.Thigh.Lower.Ant			R.Thigh.Lower.Post			R.Thigh.Upper.Ant			R.Knee.Lat			R.Knee.Med			R.Shank.Upper.Post			R.Shank.Lower.Ant			R.Shank.Lower.Post			R.Shank.Upper.Ant			R.Ankle.Lat			R.Ankle.Med			R.Heel.Upper			R.Heel.Med			R.Heel.Lat			R.Toe.Lat			R.Toe.Med			R.Toe.Tip			L.Thigh.Upper.Post			L.Thigh.Lower.Ant			L.Thigh.Lower.Post			L.Thigh.Upper.Ant			L.Knee.Lat			L.Knee.Med			L.Shank.Upper.Post			L.Shank.Lower.Ant			L.Shank.Lower.Post			L.Shank.Upper.Ant			L.Ankle.Lat			L.Ankle.Med			L.Heel.Upper			L.Heel.Med			L.Heel.Lat			L.Toe.Lat			L.Toe.Med			L.Toe.Tip			Cervical.Spine			Back			
		X1	Y1	Z1	X2	Y2	Z2	X3	Y3	Z3	X4	Y4	Z4	X5	Y5	Z5	X6	Y6	Z6	X7	Y7	Z7	X8	Y8	Z8	X9	Y9	Z9	X10	Y10	Z10	X11	Y11	Z11	X12	Y12	Z12	X13	Y13	Z13	X14	Y14	Z14	X15	Y15	Z15	X16	Y16	Z16	X17	Y17	Z17	X18	Y18	Z18	X19	Y19	Z19	X20	Y20	Z20	X21	Y21	Z21	X22	Y22	Z22	X23	Y23	Z23	X24	Y24	Z24	X25	Y25	Z25	X26	Y26	Z26	X27	Y27	Z27	X28	Y28	Z28	X29	Y29	Z29	X30	Y30	Z30	X31	Y31	Z31	X32	Y32	Z32	X33	Y33	Z33	X34	Y34	Z34	X35	Y35	Z35	X36	Y36	Z36	X37	Y37	Z37	X38	Y38	Z38	X39	Y39	Z39	X40	Y40	Z40	X41	Y41	Z41	X42	Y42	Z42	X43	Y43	Z43	X44	Y44	Z44	X45	Y45	Z45	X46	Y46	Z46	X47	Y47	Z47	X48	Y48	Z48	X49	Y49	Z49	X50	Y50	Z50	X51	Y51	Z51	

198	0.82083	-349.34	1107.6	304.48	-442.19	1337.2	463.96	-471.7	1349.3	173.53	-389.76	1625.5	324.94	-364.74	947.75	415.77	-373.49	933.04	206.62	-581.22	980.88	378.55	-590.48	981.92	304.73	-427.24	814	512.86	-492.71	815.63	134.45	-465.46	987.18	483.81	-503.29	975.61	151.79	-612.5	934.59	340.13	-418.54	617.66	484.13	-365.37	544.33	436.92	-432.78	531.01	462.53	-355.68	630.99	458.16	-417.29	454.46	439.21	-437.8	449.47	297.71	-516.93	256.05	419	-450.63	170.86	392.76	-516.66	183.58	405.24	-446.27	238.33	413.04	-508.46	90.499	386.67	-503.58	107.5	303.12	-574.37	77.469	332.12	-561.11	45.491	303.41	-569.89	45.462	367.41	-407.42	39.455	404.3	-377.33	35.02	296.77	-327.67	61.077	351.47	-434.31	602.15	147.17	-337.44	554.18	126.65	-398.65	519.53	161.75	-379.88	639.32	116.9	-332.52	472.13	133.36	-294.27	471.61	270.1	-483.54	372.31	166.2	-472.89	261.42	167.41	-523.55	312.3	185.37	-438.4	327.9	150.42	-561.83	202.71	194.9	-538.07	188.19	272.18	-620.82	207.48	241.7	-622.72	181.95	275.87	-638.88	183.01	215.68	-522.54	76.99	159.82	-479.37	71.18	260.12	-430.88	50.541	203.91	-531.86	1405.5	330.43	-608.24	1153.7	338.48
199	0.825	-344.25	1108.4	304.81	-436.78	1338.1	464.09	-466.5	1349.9	173.76	-384.2	1626	324.89	-360.01	948.43	416.38	-368.07	934.1	207.28	-576.24	981.41	378.18	-585.24	982.58	304.38	-423.15	814.18	513.03	-486.51	816.77	134.3	-460.87	987.59	483.9	-497.67	976.56	151.94	-607.47	935.26	339.67	-416.59	617.75	484.21	-364.01	543.82	437.29	-431.68	531.26	462.58	-353.41	630.35	458.61	-416.93	454.57	439.42	-436.87	449.79	297.63	-517	256.57	418.88	-450.72	171.3	392.92	-516.76	184.1	405.17	-446.33	238.74	413.23	-508.43	90.654	386.59	-503.53	107.71	303.07	-574.28	77.621	332.04	-561.08	45.592	303.32	-569.86	45.633	367.33	-407.42	39.463	404.28	-377.34	35.04	296.77	-327.64	61.055	351.49	-426.82	603.16	147.2	-329.41	555.97	127.26	-390.49	520.83	162.13	-372.58	640.69	117.06	-323.77	473.82	134.27	-286.04	473.94	270.88	-472.84	370.12	166.56	-459.29	259.59	167.94	-511.16	309.2	185.62	-426.52	326.91	151	-546.86	198.57	195.21	-522.74	184.59	272.54	-606.17	201.44	241.98	-607.25	175.68	276.02	-623.41	176.45	215.91	-503.77	74.225	159.84	-460.45	69.536	260.15	-411.33	50.547	203.93	-526.47	1406.1	330.61	-602.94	1154.3	338.87
200	0.82917	-339.15	1109.1	305.15	-431.39	1338.9	464.22	-461.29	1350.5	173.99	-378.64	1626.5	324.82	-355.29	949.07	417	-362.66	935.09	207.93	-571.28	981.84	377.78	-580	983.15	304.01	-419.07	814.31	513.22	-480.28	817.84	134.11	-456.3	987.94	483.98	-492.07	977.42	152.06	-602.44	935.83	339.17	-414.68	617.84	484.29	-362.69	543.29	437.68	-430.62	531.5	462.62	-351.17	629.68	459.08	-416.6	454.68	439.64	-435.95	450.1	297.55	-517.09	257.08	418.75	-450.83	171.73	393.09	-516.88	184.61	405.08	-446.42	239.16	413.41	-508.39	90.809	386.5	-503.47	107.92	303	-574.19	77.767	331.95	-561.06	45.694	303.21	-569.82	45.809	367.24	-407.41	39.471	404.26	-377.35	35.053	296.77	-327.61	61.031	351.51	-419.42	604.1	147.24	-321.47	557.67	127.91	-382.46	522.07	162.54	-365.34	641.98	117.24	-315.16	475.44	135.22	-278.02	476.15	271.71	-462.13	367.82	166.93	-445.62	257.73	168.47	-498.67	306.01	185.86	-414.62	325.85	151.58	-531.73	194.38	195.5	-507.25	180.95	272.86	-591.29	195.33	242.22	-591.53	169.37	276.16	-607.69	169.83	216.13	-484.85	71.523	159.86	-441.4	67.977	260.16	-391.71	50.661	203.94	-521.08	1406.7	330.79	-597.64	1154.9	339.24
201	0.83333	-334.04	1109.8	305.51	-426	1339.6	464.35	-456.06	1351	174.21	-373.09	1626.9	324.74	-350.58	949.66	417.61	-357.26	935.99	208.58	-566.34	982.2	377.34	-574.77	983.63	303.6	-414.98	814.41	513.4	-474.03	818.85	133.88	-451.77	988.24	484.04	-486.46	978.2	152.16	-597.41	936.31	338.64	-412.8	617.9	484.36	-361.4	542.74	438.08	-429.59	531.73	462.65	-348.96	628.99	459.56	-416.3	454.79	439.86	-435.03	450.38	297.47	-517.2	257.59	418.59	-450.97	172.16	393.25	-517.02	185.12	404.97	-446.54	239.56	413.6	-508.36	90.963	386.4	-503.42	108.11	302.93	-574.1	77.909	331.84	-561.02	45.796	303.11	-569.78	45.989	367.14	-407.41	39.479	404.24	-377.37	35.059	296.77	-327.59	61.006	351.53	-412.1	604.98	147.3	-313.64	559.26	128.59	-374.55	523.22	162.97	-358.18	643.19	117.44	-306.68	476.98	136.18	-270.21	478.23	272.57	-451.39	365.41	167.3	-431.88	255.84	168.98	-486.11	302.72	186.1	-402.71	324.75	152.16	-516.44	190.15	195.76	-491.61	177.27	273.17	-576.17	189.15	242.44	-575.57	163.04	276.29	-591.72	163.17	216.33	-465.78	68.901	159.87	-422.23	66.519	260.17	-372.02	50.899	203.94	-515.69	1407.1	330.95	-592.34	1155.4	339.58
202	0.8375	-328.92	1110.4	305.87	-420.63	1340.3	464.48	-450.82	1351.4	174.42	-367.54	1627.2	324.63	-345.87	950.19	418.21	-351.87	936.82	209.22	-561.41	982.47	376.87	-569.53	984.02	303.16	-410.9	814.45	513.6	-467.77	819.8	133.6	-447.27	988.48	484.08	-480.86	978.89	152.24	-592.37	936.7	338.07	-410.95	617.96	484.44	-360.14	542.19	438.5	-428.59	531.97	462.67	-346.79	628.29	460.06	-416.03	454.9	440.09	-434.13	450.64	297.4	-517.33	258.08	418.43	-451.12	172.57	393.42	-517.17	185.61	404.85	-446.69	239.96	413.8	-508.33	91.115	386.29	-503.35	108.3	302.84	-574.02	78.044	331.7	-560.99	45.9	303	-569.74	46.171	367.03	-407.41	39.485	404.21	-377.4	35.06	296.78	-327.56	60.98	351.56	-404.87	605.78	147.38	-305.92	560.76	129.29	-366.76	524.29	163.42	-351.08	644.3	117.66	-298.33	478.42	137.18	-262.61	480.16	273.46	-440.62	362.88	167.66	-418.07	253.93	169.49	-473.45	299.34	186.34	-390.79	323.59	152.73	-500.98	185.89	195.99	-475.8	173.59	273.45	-560.81	182.92	242.63	-559.35	156.7	276.39	-575.49	156.49	216.5	-446.56	66.376	159.87	-402.95	65.179	260.18	-352.28	51.274	203.94	-510.3	1407.5	331.1	-587.04	1155.8	339.9
203	0.84167	-323.79	1111	306.25	-415.26	1340.9	464.6	-445.56	1351.7	174.63	-361.99	1627.5	324.51	-341.16	950.67	418.8	-346.49	937.55	209.85	-556.48	982.67	376.38	-564.3	984.32	302.69	-406.82	814.45	513.8	-461.51	820.68	133.27	-442.78	988.66	484.1	-475.27	979.49	152.3	-587.34	936.99	337.47	-409.14	618.01	484.52	-358.91	541.63	438.94	-427.61	532.19	462.69	-344.65	627.56	460.56	-415.78	455	440.32	-433.23	450.87	297.35	-517.47	258.55	418.26	-451.3	172.97	393.58	-517.32	186.09	404.72	-446.85	240.34	413.99	-508.3	91.262	386.18	-503.29	108.47	302.76	-573.94	78.173	331.56	-560.95	46.005	302.89	-569.7	46.354	366.91	-407.41	39.488	404.18	-377.44	35.055	296.8	-327.53	60.952	351.58	-397.72	606.51	147.47	-298.3	562.13	130.03	-359.11	525.26	163.88	-344.05	645.31	117.9	-290.13	479.77	138.19	-255.2	481.96	274.39	-429.82	360.26	168.03	-404.19	252.02	169.99	-460.72	295.89	186.58	-378.87	322.38	153.31	-485.35	181.63	196.2	-459.85	169.91	273.71	-545.2	176.68	242.79	-542.88	150.38	276.47	-559	149.82	216.66	-427.2	63.965	159.86	-383.56	63.972	260.18	-332.49	51.8	203.94	-504.9	1407.9	331.24	-581.73	1156.1	340.2
204	0.84583	-318.65	1111.5	306.63	-409.89	1341.4	464.73	-440.29	1352	174.83	-356.44	1627.7	324.36	-336.44	951.08	419.38	-341.11	938.2	210.46	-551.57	982.78	375.87	-559.07	984.55	302.21	-402.76	814.4	514	-455.25	821.48	132.91	-438.31	988.77	484.11	-469.69	980.01	152.34	-582.3	937.2	336.84	-407.34	618.04	484.6	-357.71	541.06	439.4	-426.65	532.41	462.7	-342.54	626.82	461.07	-415.54	455.1	440.56	-432.34	451.07	297.33	-517.62	259	418.09	-451.49	173.35	393.74	-517.49	186.54	404.59	-447.03	240.7	414.19	-508.27	91.404	386.05	-503.21	108.63	302.66	-573.86	78.297	331.4	-560.92	46.112	302.78	-569.66	46.535	366.79	-407.42	39.489	404.16	-377.48	35.047	296.82	-327.5	60.924	351.61	-390.66	607.16	147.56	-290.78	563.4	130.8	-351.59	526.14	164.35	-337.09	646.22	118.17	-282.07	481.01	139.23	-247.99	483.6	275.35	-418.99	357.54	168.39	-390.25	250.11	170.48	-447.91	292.38	186.82	-366.93	321.14	153.88	-469.56	177.38	196.37	-443.74	166.26	273.94	-529.34	170.42	242.92	-526.16	144.09	276.54	-542.25	143.17	216.78	-407.71	61.684	159.84	-364.08	62.915	260.17	-312.66	52.491	203.93	-499.49	1408.1	331.37	-576.42	1156.4	340.48
205	0.85	-313.49	1111.9	307.01	-404.53	1341.9	464.85	-435.01	1352.2	175.03	-350.9	1627.8	324.19	-331.71	951.42	419.94	-335.73	938.75	211.06	-546.65	982.83	375.34	-553.84	984.69	301.7	-398.71	814.31	514.21	-448.99	822.21	132.51	-433.84	988.82	484.1	-464.11	980.45	152.37	-577.26	937.32	336.19	-405.56	618.07	484.69	-356.52	540.48	439.88	-425.71	532.63	462.73	-340.45	626.07	461.59	-415.31	455.19	440.82	-431.46	451.24	297.34	-517.76	259.43	417.92	-451.68	173.7	393.9	-517.65	186.97	404.45	-447.21	241.03	414.39	-508.25	91.539	385.93	-503.13	108.78	302.57	-573.79	78.415	331.23	-560.87	46.219	302.67	-569.61	46.714	366.67	-407.42	39.486	404.13	-377.51	35.039	296.85	-327.47	60.896	351.63	-383.68	607.72	147.67	-283.38	564.54	131.59	-344.19	526.91	164.81	-330.19	647.03	118.47	-274.15	482.14	140.28	-240.96	485.08	276.35	-408.11	354.74	168.76	-376.25	248.21	170.97	-435.02	288.81	187.07	-354.99	319.87	154.45	-453.61	173.16	196.52	-427.48	162.64	274.15	-513.24	164.17	243.02	-509.19	137.87	276.58	-525.24	136.56	216.87	-388.1	59.55	159.81	-344.51	62.025	260.17	-292.81	53.36	203.92	-494.08	1408.3	331.49	-571.12	1156.6	340.75
